# xmcd
#
# Track frame offsets:
#	150
#	23102
#	35624
#	60824
#	88757
#	108971
#	121815
#	137364
#	157273
#	173916
#	192075
#	220524
#	237155
#	249996
#	255910
#
# Disc length: 3772 seconds
#
# Revision: 0
# Processed by: cddbd v1.5.2PL0 Copyright (c) Steve Scherf et al.
# Submitted via: EZCDAudioConverter 2.1.7.1
#
DISCID=b60eba0f
DTITLE=Psychemagik - Ritual Chants 1/3
DYEAR=1900
DGENRE=
TTITLE0=Man Parrish - Water Sports
TTITLE1=Rias Orchestra - Amram
TTITLE2=John J. Francis - God's Garden
TTITLE3=Chac Mool - Ofrenda
TTITLE4=Kraan - Silky Way
TTITLE5=G.R.C. Five - Saga Of A Secluded Swamp Monster
TTITLE6=Free Fantasy - Caroline
TTITLE7=Jeanette - L'amour Joue Au Violon
TTITLE8=Wavemaker - Tunnel Of Love
TTITLE9=Bobby Lyle - Making Love
TTITLE10=Babla and Kanchan - Aay Mere Dil
TTITLE11=FG's Romance - What Is Love Today?
TTITLE12=Etienne Vermoessen and Guido Delo - Easy Morning
TTITLE13=Musyl and Joseppa - Follow Me
TTITLE14=Karat - Auf Den Meeren
EXTD=
EXTT0=
EXTT1=
EXTT2=
EXTT3=
EXTT4=
EXTT5=
EXTT6=
EXTT7=
EXTT8=
EXTT9=
EXTT10=
EXTT11=
EXTT12=
EXTT13=
EXTT14=
PLAYORDER=
